<mxfile host="65bd71144e">
    <diagram id="5i9vcOHv6I1RHR96sohd" name="第 1 页">
        <mxGraphModel dx="1242" dy="920" grid="1" gridSize="10" guides="1" tooltips="1" connect="1" arrows="1" fold="1" page="1" pageScale="1" pageWidth="850" pageHeight="1100" math="0" shadow="0">
            <root>
                <mxCell id="0"/>
                <mxCell id="1" parent="0"/>
                <mxCell id="21" value="" style="group;fillColor=default;glass=0;fillStyle=dashed;" parent="1" vertex="1" connectable="0">
                    <mxGeometry x="160" y="110" width="810" height="940" as="geometry"/>
                </mxCell>
                <mxCell id="3" value="" style="rounded=0;whiteSpace=wrap;html=1;strokeWidth=7;sketch=1;curveFitting=1;jiggle=2;movable=0;resizable=0;rotatable=0;deletable=0;editable=0;connectable=0;fillColor=none;" parent="21" vertex="1">
                    <mxGeometry width="339.99999999999994" height="220" as="geometry"/>
                </mxCell>
                <mxCell id="7" value="" style="endArrow=none;html=1;strokeWidth=5;entryX=1;entryY=0.25;entryDx=0;entryDy=0;exitX=0;exitY=0.25;exitDx=0;exitDy=0;sketch=1;curveFitting=1;jiggle=2;" parent="21" source="3" target="3" edge="1">
                    <mxGeometry width="50" height="50" relative="1" as="geometry">
                        <mxPoint x="10.303030303030303" y="60" as="sourcePoint"/>
                        <mxPoint x="61.8181818181818" y="10" as="targetPoint"/>
                    </mxGeometry>
                </mxCell>
                <mxCell id="8" value="" style="ellipse;whiteSpace=wrap;html=1;aspect=fixed;strokeWidth=6;fillColor=#E51400;fontColor=#ffffff;strokeColor=#100f0f;movable=1;resizable=1;rotatable=1;deletable=1;editable=1;connectable=1;shadow=0;" parent="21" vertex="1">
                    <mxGeometry x="20.606060606060606" y="20" width="18.88888888888889" height="18.88888888888889" as="geometry"/>
                </mxCell>
                <mxCell id="9" value="" style="ellipse;whiteSpace=wrap;html=1;aspect=fixed;strokeWidth=6;fillColor=#e3c800;fontColor=#000000;strokeColor=#000000;gradientColor=none;" parent="21" vertex="1">
                    <mxGeometry x="51.51515151515151" y="20" width="18.88888888888889" height="18.88888888888889" as="geometry"/>
                </mxCell>
                <mxCell id="10" value="" style="ellipse;whiteSpace=wrap;html=1;aspect=fixed;strokeWidth=6;fillColor=#009900;fontColor=#ffffff;strokeColor=#100f0f;" parent="21" vertex="1">
                    <mxGeometry x="82.42424242424242" y="20" width="18.88888888888889" height="18.88888888888889" as="geometry"/>
                </mxCell>
                <mxCell id="13" value="" style="whiteSpace=wrap;html=1;strokeColor=#314354;strokeWidth=1;fillColor=#647687;fontColor=#ffffff;movable=1;resizable=1;rotatable=1;deletable=1;editable=1;connectable=1;container=0;glass=0;" parent="21" vertex="1">
                    <mxGeometry x="510" y="30" width="330" height="530" as="geometry"/>
                </mxCell>
                <mxCell id="18" value="" style="whiteSpace=wrap;html=1;aspect=fixed;rounded=0;shadow=0;sketch=0;hachureGap=4;jiggle=2;fillStyle=hachure;curveFitting=1;strokeWidth=1;fontFamily=Architects Daughter;fontSource=https%3A%2F%2Ffonts.googleapis.com%2Fcss%3Ffamily%3DArchitects%2BDaughter;fontSize=20;fillColor=#3399FF;container=0;movable=0;resizable=0;rotatable=0;deletable=0;editable=0;connectable=0;" parent="21" vertex="1">
                    <mxGeometry x="510" y="120" width="332.5" height="332.5" as="geometry"/>
                </mxCell>
                <mxCell id="23" value="" style="group;movable=0;resizable=0;rotatable=0;deletable=0;editable=0;connectable=0;" vertex="1" connectable="0" parent="21">
                    <mxGeometry x="510" y="30" width="332.5" height="530" as="geometry"/>
                </mxCell>
                <mxCell id="22" value="" style="group;movable=0;resizable=0;rotatable=0;deletable=0;editable=0;connectable=0;" vertex="1" connectable="0" parent="23">
                    <mxGeometry y="90" width="332.5" height="332.5" as="geometry"/>
                </mxCell>
                <mxCell id="19" value="" style="rounded=0;whiteSpace=wrap;html=1;shadow=0;hachureGap=4;fillStyle=hachure;strokeWidth=1;fontFamily=Architects Daughter;fontSource=https%3A%2F%2Ffonts.googleapis.com%2Fcss%3Ffamily%3DArchitects%2BDaughter;fontSize=20;fillColor=#E51400;container=0;movable=0;resizable=0;rotatable=0;deletable=0;editable=0;connectable=0;" parent="22" vertex="1">
                    <mxGeometry x="2.5" y="86.25" width="330" height="160" as="geometry"/>
                </mxCell>
            </root>
        </mxGraphModel>
    </diagram>
</mxfile>